<svg xmlns="http://www.w3.org/2000/svg" width="80" height="80" viewBox="0 0 80 80">
    <defs>
        <linearGradient id="h6xnbx10ca" x1="0%" x2="100%" y1="0%" y2="100%">
            <stop offset="0%" stop-color="#6157FC"/>
            <stop offset="100%" stop-color="#000A3F"/>
        </linearGradient>
    </defs>
    <g fill="none" fill-rule="evenodd">
        <g>
            <g>
                <g transform="translate(-240 -261) translate(80 261) translate(160)">
                    <rect width="80" height="80" fill="url(#h6xnbx10ca)" rx="5" transform="matrix(-1 0 0 1 80 0)"/>
                    <g>
                        <g>
                            <path fill="#FFF" d="M15.05 55.435L21.005 55.435 21.005 26.28 15.05 26.28z" transform="translate(12 12) translate(9.387 .324)"/>
                            <path fill="#FF5A3A" d="M25.928 35.1c-1.407 0-2.655-1.009-2.908-2.443-.285-1.607.788-3.142 2.396-3.427 3.57-.632 6.16-3.791 6.16-7.513 0-2.499-1.229-4.844-3.287-6.273-.928-.643-1.407-1.759-1.237-2.875.044-.289.067-.586.067-.882 0-3.183-2.59-5.773-5.774-5.773-2.537 0-4.752 1.625-5.51 4.044-.454 1.45-1.938 2.319-3.42 2.011-.36-.074-.73-.112-1.1-.112-2.978 0-5.402 2.423-5.402 5.402 0 1.414.545 2.752 1.533 3.767.682.7.974 1.693.78 2.652-.056.27-.084.548-.084.825 0 1.136.252 3.832 2.59 4.326 1.597.339 2.618 1.907 2.28 3.505-.338 1.598-1.905 2.618-3.505 2.281C5.086 33.68 2.23 29.71 2.23 24.503c0-.161.004-.323.011-.485C.787 22.074 0 19.722 0 17.259c0-6.187 4.992-11.23 11.159-11.314C13.195 2.312 17.04 0 21.345 0c6.44 0 11.681 5.236 11.687 11.676 2.818 2.551 4.458 6.193 4.458 10.04 0 6.596-4.644 12.204-11.044 13.337-.174.031-.347.046-.518.046" transform="translate(12 12) translate(9.387 .324)"/>
                        </g>
                    </g>
                </g>
            </g>
        </g>
    </g>
</svg>
